<?xml version="1.0" standalone="no"?>
<!DOCTYPE svg PUBLIC "-//W3C//DTD SVG 20010904//EN"
 "http://www.w3.org/TR/2001/REC-SVG-20010904/DTD/svg10.dtd">
<svg version="1.0" xmlns="http://www.w3.org/2000/svg"
 width="1708.000000pt" height="508.000000pt" viewBox="0 0 1708.000000 508.000000"
 preserveAspectRatio="xMidYMid meet">

<g transform="translate(0.000000,508.000000) scale(0.100000,-0.100000)"
fill="#000000" stroke="none">
<path d="M1934 4908 c-68 -46 -93 -101 -94 -199 0 -86 15 -143 66 -255 20 -44
43 -97 50 -118 l14 -39 -39 44 c-21 25 -63 58 -92 74 -47 26 -64 29 -134 30
-104 0 -167 -27 -233 -99 -64 -71 -86 -134 -80 -234 6 -108 39 -176 128 -263
56 -56 91 -79 186 -125 l116 -58 -40 -11 c-99 -30 -164 -122 -164 -233 0 -116
51 -212 152 -286 31 -23 117 -69 189 -101 194 -85 271 -164 271 -278 0 -43 2
-47 24 -47 55 0 41 144 -24 241 -42 64 -100 107 -253 186 -195 99 -267 178
-267 290 0 68 37 123 105 154 79 37 149 19 223 -57 30 -31 61 -54 73 -54 20 0
20 1 -3 42 -35 64 -125 148 -216 201 -212 122 -247 145 -288 180 -25 22 -56
64 -75 102 -28 57 -31 71 -27 134 5 91 39 144 117 184 96 48 201 28 283 -54
44 -44 108 -155 108 -187 0 -8 8 -12 18 -10 15 3 17 16 17 108 -1 101 -3 111
-59 275 -72 209 -83 303 -46 379 12 25 40 62 63 81 l41 35 -31 0 c-18 0 -50
-13 -79 -32z"/>
<path d="M10104 4805 c-70 -29 -85 -113 -36 -194 16 -25 34 -62 40 -81 9 -30
52 -352 52 -393 0 -25 -49 -37 -145 -37 -86 0 -96 2 -124 26 -17 14 -38 38
-48 54 -13 23 -20 27 -35 19 -10 -5 -25 -25 -33 -44 -18 -44 -46 -55 -136 -55
l-69 0 0 28 c0 50 -50 134 -95 159 -40 23 -43 23 -500 23 -483 0 -535 4 -535
41 0 48 57 112 150 168 44 26 65 26 97 1 34 -27 98 -27 113 -1 23 44 3 103
-42 122 -45 18 -149 6 -214 -26 -125 -61 -233 -200 -218 -281 9 -48 48 -89
100 -103 25 -7 193 -11 480 -11 243 0 456 -3 474 -6 35 -8 70 -53 70 -91 l0
-23 -612 0 c-685 0 -624 -6 -682 73 -26 36 -29 37 -46 22 -10 -9 -21 -27 -24
-41 -9 -36 -55 -54 -135 -54 l-70 0 -12 58 c-36 166 -127 229 -208 144 -68
-71 -93 -202 -49 -257 25 -32 74 -55 118 -55 27 0 30 -3 30 -32 0 -75 -83
-196 -168 -246 -42 -24 -56 -27 -132 -26 -53 0 -99 7 -122 17 -49 21 -91 81
-123 178 -26 79 -45 108 -45 70 0 -43 30 -172 49 -208 24 -47 86 -108 124
-122 47 -18 159 -13 233 10 60 19 77 30 139 93 51 51 84 97 118 164 l48 92 70
0 c79 0 103 9 122 47 l14 26 29 -37 29 -36 635 0 c543 -1 638 -3 654 -15 25
-19 76 -19 102 0 14 9 53 15 110 17 87 3 89 3 110 35 l22 33 31 -35 30 -35
151 0 c170 0 162 5 135 -84 -8 -27 -13 -52 -10 -54 9 -9 94 87 101 113 6 24 9
25 94 25 80 0 91 -2 118 -25 35 -29 49 -31 80 -9 31 21 50 71 64 170 13 89 7
166 -28 389 -9 56 -13 121 -9 147 6 51 -10 103 -38 127 -22 18 -63 7 -93 -26
-36 -39 -33 -100 10 -178 52 -92 67 -174 64 -345 -3 -139 -4 -145 -23 -141
-11 2 -62 6 -112 8 -62 3 -93 8 -93 16 -2 86 -24 289 -40 387 -14 76 -20 145
-17 175 7 58 -9 112 -38 131 -16 10 -26 10 -51 -1z m-2342 -642 c10 -9 18 -27
18 -40 0 -18 -5 -23 -27 -23 -43 0 -81 49 -56 73 12 12 46 7 65 -10z"/>
<path d="M11689 4781 c-42 -43 -40 -91 11 -189 38 -74 41 -84 62 -269 18 -155
20 -195 10 -205 -14 -14 -176 -24 -217 -14 -14 4 -42 28 -63 54 -21 27 -43 47
-50 44 -7 -2 -22 -22 -33 -43 -21 -43 -50 -59 -105 -59 l-34 0 0 -61 0 -60 47
3 c41 3 50 7 68 35 11 18 22 32 25 32 3 0 16 -15 30 -34 l25 -34 153 -1 c141
0 153 -1 148 -17 -2 -10 -10 -37 -17 -61 -7 -23 -9 -45 -5 -49 10 -10 65 47
87 90 17 32 24 37 54 37 l35 0 0 59 c0 54 -2 60 -22 63 -22 3 -23 9 -31 113
-4 61 -17 167 -28 238 -11 70 -20 164 -20 210 0 65 -4 89 -19 115 -26 43 -69
44 -111 3z"/>
<path d="M12874 4790 c-28 -11 -72 -65 -80 -97 -4 -14 -2 -33 4 -42 35 -48 42
-79 57 -228 28 -294 19 -351 -82 -492 -17 -24 -17 -24 7 -11 78 40 142 118
174 214 14 41 15 62 6 145 -34 317 -34 315 -17 384 22 84 21 93 -3 117 -22 22
-33 23 -66 10z"/>
<path d="M16383 4780 c-36 -22 -58 -52 -68 -92 -6 -21 -1 -35 18 -58 27 -32
30 -47 47 -224 23 -251 9 -345 -66 -447 l-37 -51 40 20 c85 44 173 182 173
272 0 25 -7 95 -15 155 -18 130 -20 276 -5 325 15 51 12 85 -8 103 -24 22 -40
21 -79 -3z"/>
<path d="M7286 4760 c-50 -44 -50 -98 -1 -185 51 -92 65 -164 65 -344 l0 -153
-22 7 c-13 4 -59 11 -102 14 l-80 6 -17 65 c-24 94 -34 114 -69 143 -38 33
-87 35 -123 7 -34 -27 -77 -119 -83 -178 -9 -85 52 -152 140 -152 l39 0 -7
-42 c-16 -99 -129 -232 -219 -258 -52 -14 -161 -7 -212 14 -40 17 -79 76 -109
163 -36 107 -47 120 -44 52 l3 -55 -26 13 c-48 24 -107 -15 -95 -62 9 -37 49
-60 78 -44 29 15 37 28 39 59 1 20 4 16 14 -16 25 -80 63 -132 128 -176 35
-25 49 -28 117 -28 184 0 297 83 406 294 l39 76 62 0 c52 0 66 -4 93 -27 26
-21 36 -25 57 -17 40 14 61 52 79 139 19 92 15 223 -12 370 -9 50 -17 134 -18
188 -2 80 -6 102 -23 125 -28 38 -55 39 -97 2z m-265 -590 c12 -7 19 -21 19
-40 0 -26 -4 -30 -28 -30 -33 0 -52 16 -52 45 0 36 23 45 61 25z"/>
<path d="M12554 4756 c-47 -47 -46 -87 6 -187 54 -106 73 -214 64 -372 -7
-115 -8 -118 -28 -112 -12 4 -40 10 -63 12 l-43 5 0 -61 c0 -60 1 -61 27 -61
16 0 39 -11 55 -27 24 -23 32 -25 55 -17 86 30 115 224 73 479 -11 66 -20 162
-20 213 0 120 -20 162 -77 162 -8 0 -30 -15 -49 -34z"/>
<path d="M16103 4780 c-29 -12 -63 -67 -63 -102 0 -14 18 -60 39 -100 62 -118
82 -253 65 -439 l-7 -66 -26 13 c-16 9 -59 14 -112 14 l-86 0 -31 49 c-37 61
-71 84 -122 84 -53 0 -84 -23 -112 -82 l-23 -50 -88 -1 -88 0 -41 45 c-25 27
-58 51 -87 61 -137 50 -161 72 -101 93 24 8 30 16 30 39 0 90 -123 77 -150
-16 -20 -66 3 -109 88 -167 l73 -49 -60 -12 c-85 -18 -125 -39 -176 -96 -44
-49 -69 -103 -63 -134 2 -12 17 1 48 40 70 88 98 96 293 87 31 -2 63 2 70 8 9
7 27 6 62 -4 26 -8 83 -15 126 -15 l77 0 22 -35 c27 -44 66 -65 121 -65 38 0
48 5 89 50 l46 50 75 0 c68 0 78 -3 99 -25 51 -54 108 -15 135 93 22 90 21
237 -5 387 -11 66 -20 158 -20 205 0 124 -30 167 -97 140z m-314 -673 c32 -39
20 -117 -18 -117 -24 0 -39 19 -47 57 -11 55 34 97 65 60z"/>
<path d="M5328 4731 c-30 -27 -33 -35 -33 -83 1 -42 8 -67 32 -110 27 -47 38
-89 68 -257 40 -227 39 -274 -11 -358 -14 -25 -23 -47 -20 -50 8 -9 54 24 101
73 l43 45 75 -7 c96 -9 123 -2 143 38 l17 32 29 -37 30 -37 337 6 c299 6 345
5 414 -10 89 -20 123 -16 132 16 10 30 8 99 -3 110 -14 14 -80 27 -133 28 -60
0 -97 25 -172 118 -75 93 -116 123 -171 129 -103 12 -156 -20 -156 -94 0 -75
52 -104 109 -62 28 21 30 21 74 4 52 -20 83 -48 92 -86 6 -25 5 -26 -56 -33
-97 -10 -378 -7 -399 4 -11 6 -33 31 -50 55 -27 39 -34 44 -51 35 -10 -6 -19
-18 -19 -26 0 -9 -13 -29 -29 -45 -28 -28 -33 -29 -119 -29 l-90 0 -22 88
c-12 48 -32 143 -45 212 -21 111 -22 134 -13 207 15 108 5 147 -39 151 -23 2
-40 -4 -65 -27z"/>
<path d="M11004 4743 c-55 -45 -59 -114 -11 -205 28 -51 40 -96 65 -238 44
-244 42 -305 -14 -389 -13 -19 -22 -37 -20 -39 9 -9 67 31 99 68 25 29 45 43
71 47 l36 6 0 53 c0 51 -2 54 -25 54 -26 0 -23 -5 -59 135 -8 33 -25 114 -36
179 -19 106 -20 129 -10 202 10 67 9 88 -2 111 -16 34 -62 42 -94 16z"/>
<path d="M13481 4721 c-10 -10 -21 -25 -24 -32 -4 -10 -9 -8 -22 9 -12 16 -26
22 -55 22 -50 0 -74 -23 -66 -64 12 -61 69 -74 116 -27 28 28 30 28 46 10 22
-25 65 -24 98 2 30 24 32 40 10 74 -20 31 -75 34 -103 6z"/>
<path d="M2441 4540 c-81 -208 -105 -378 -98 -670 4 -185 12 -258 51 -525 25
-170 50 -362 56 -425 24 -276 2 -505 -71 -723 -34 -104 -35 -107 -10 -107 53
0 164 190 207 356 23 87 27 124 31 309 6 229 -4 359 -58 759 -64 482 -78 781
-45 995 9 58 16 106 16 108 0 2 -11 3 -24 3 -21 0 -29 -10 -55 -80z"/>
<path d="M13573 4560 c-12 -5 -25 -21 -29 -37 -6 -23 -2 -32 30 -59 41 -35 67
-101 46 -114 -7 -4 -51 -18 -99 -30 -122 -32 -161 -74 -161 -177 0 -106 67
-163 192 -163 37 0 68 -3 68 -7 0 -4 -15 -22 -32 -41 l-33 -34 40 7 c22 3 51
14 64 23 91 65 106 67 120 17 34 -125 177 -247 341 -290 72 -19 220 -19 295 0
33 9 95 35 139 58 65 34 88 53 124 102 126 171 160 323 98 449 -55 113 -176
117 -176 6 0 -46 9 -58 66 -89 l49 -27 -2 -59 c-3 -76 -43 -160 -116 -241 -64
-70 -132 -107 -235 -129 -232 -48 -425 24 -550 208 l-33 47 60 0 c53 0 63 3
76 24 24 37 42 38 79 6 18 -17 37 -30 41 -30 5 0 23 11 41 25 18 14 36 25 40
25 4 0 19 -14 33 -30 24 -28 28 -30 63 -20 48 14 84 57 97 118 12 58 3 105
-33 167 -31 52 -55 68 -91 59 -26 -6 -65 -52 -65 -76 0 -27 27 -51 66 -57 31
-5 40 -11 42 -30 7 -44 -6 -71 -34 -71 -19 0 -32 11 -56 50 -17 28 -34 50 -38
50 -3 0 -16 -18 -29 -40 -12 -22 -26 -42 -31 -45 -5 -3 -21 17 -36 45 -34 62
-56 65 -83 11 -24 -47 -60 -63 -132 -59 l-54 3 -5 190 c-5 201 -14 241 -59
265 -24 12 -68 12 -98 0z m61 -332 c22 -107 10 -128 -68 -128 -29 0 -61 6 -71
14 -16 12 -18 19 -10 52 8 30 19 44 50 61 53 30 93 30 99 1z"/>
<path d="M9671 4494 c-12 -15 -21 -30 -21 -34 0 -4 9 -19 21 -34 35 -45 93
-29 105 30 12 62 -65 89 -105 38z"/>
<path d="M9842 4504 c-42 -29 -20 -104 31 -104 38 0 67 28 67 64 0 17 -5 37
-12 44 -17 17 -59 15 -86 -4z"/>
<path d="M7997 4472 c-35 -39 -9 -102 41 -102 50 0 81 70 46 104 -21 22 -67
20 -87 -2z"/>
<path d="M12142 4331 c-26 -26 -63 -56 -82 -66 -53 -26 -70 -45 -70 -76 0 -33
16 -44 85 -54 48 -7 49 -7 25 -21 -14 -7 -49 -13 -77 -14 l-53 0 0 -60 0 -60
75 0 c68 0 77 2 108 30 19 17 39 30 43 30 5 -1 25 -14 44 -30 32 -28 40 -30
117 -30 l83 0 0 60 0 60 -53 0 c-30 0 -62 6 -72 14 -18 13 -17 15 20 21 62 10
85 22 85 45 0 34 -18 58 -63 84 -23 14 -62 45 -85 71 -24 25 -53 45 -63 45
-11 0 -41 -22 -67 -49z m131 -101 c64 -23 -2 -54 -96 -46 -32 3 -63 9 -68 12
-15 9 9 32 40 39 17 4 33 16 40 32 l12 27 22 -27 c12 -14 35 -31 50 -37z"/>
<path d="M5657 3858 c-28 -10 -44 -45 -34 -72 3 -8 17 -22 31 -31 20 -14 29
-14 48 -4 30 16 38 28 38 61 0 17 -9 33 -22 42 -25 18 -23 18 -61 4z"/>
<path d="M5807 3852 c-36 -39 -11 -102 39 -102 51 0 83 69 48 104 -21 22 -67
20 -87 -2z"/>
<path d="M11323 3860 c-48 -19 -49 -79 -3 -108 27 -16 68 1 80 33 14 36 13 42
-10 65 -22 22 -33 23 -67 10z"/>
<path d="M11471 3843 c-33 -41 -11 -93 40 -93 51 0 82 54 55 95 -23 35 -68 34
-95 -2z"/>
<path d="M14204 2646 c-104 -46 -97 -190 11 -226 26 -9 44 -9 70 0 109 36 115
182 9 226 -41 17 -50 17 -90 0z m88 -73 c22 -20 23 -51 1 -75 -32 -36 -103
-12 -103 35 0 49 64 75 102 40z"/>
<path d="M15033 2653 c-12 -2 -36 -20 -53 -39 -84 -96 16 -240 133 -191 141
59 71 262 -80 230z m84 -89 c15 -24 15 -29 2 -53 -29 -51 -109 -33 -109 24 0
56 76 76 107 29z"/>
<path d="M5290 2505 l0 -145 -70 0 -70 0 0 -40 0 -40 70 0 70 0 0 -160 0 -160
35 0 35 0 0 160 0 160 70 0 70 0 0 40 0 40 -70 0 -70 0 0 145 0 145 -35 0 -35
0 0 -145z"/>
<path d="M5780 2564 c-102 -47 -186 -87 -187 -87 -1 -1 41 -38 92 -82 52 -44
94 -84 94 -90 1 -5 -42 -48 -94 -95 -52 -46 -93 -85 -92 -86 6 -6 377 -174
385 -174 4 0 15 15 24 33 l16 33 -132 58 c-72 32 -135 62 -140 67 -9 8 6 24
137 139 l28 25 -85 70 c-47 39 -85 74 -83 79 2 5 64 36 139 69 l136 61 -16 33
c-9 18 -20 33 -26 33 -6 -1 -94 -39 -196 -86z"/>
<path d="M6150 2305 l0 -345 40 0 40 0 0 345 0 345 -40 0 -40 0 0 -345z"/>
<path d="M6390 2305 l0 -345 235 0 235 0 0 40 0 40 -195 0 -195 0 0 265 0 265
195 0 195 0 0 40 0 40 -235 0 -235 0 0 -345z"/>
<path d="M7000 2305 l0 -345 39 0 39 0 4 63 c3 37 25 123 54 212 l49 150 3
-212 2 -213 35 0 35 0 0 345 0 345 -35 0 c-35 0 -35 -1 -35 -42 1 -24 -22
-118 -52 -216 l-53 -172 -3 215 -2 215 -40 0 -40 0 0 -345z"/>
<path d="M7740 2505 l0 -145 -65 0 -65 0 0 -40 0 -40 65 0 65 0 0 -160 0 -160
35 0 35 0 0 160 0 160 70 0 70 0 0 40 0 40 -70 0 -70 0 0 145 0 145 -35 0 -35
0 0 -145z"/>
<path d="M8510 2305 l0 -345 35 0 35 0 0 345 0 345 -35 0 -35 0 0 -345z"/>
<path d="M9140 2610 l0 -40 90 0 90 0 0 -265 0 -265 -90 0 -90 0 0 -40 0 -40
125 0 125 0 0 160 0 160 75 0 75 0 0 -160 0 -160 130 0 130 0 0 40 0 40 -95 0
-95 0 0 265 0 265 95 0 95 0 0 40 0 40 -130 0 -130 0 0 -145 0 -145 -75 0 -75
0 0 145 0 145 -125 0 -125 0 0 -40z"/>
<path d="M9930 2305 l0 -345 35 0 35 0 0 48 c0 30 20 108 54 212 l54 165 1
-212 1 -213 40 0 40 0 0 345 0 345 -40 0 -40 0 0 -52 c0 -37 -17 -104 -54
-218 l-54 -165 -1 218 -1 217 -35 0 -35 0 0 -345z"/>
<path d="M10340 2305 l0 -345 35 0 c34 0 35 1 35 38 -1 40 100 382 113 382 4
0 7 -94 7 -210 l0 -210 35 0 35 0 0 345 0 345 -34 0 c-33 0 -34 0 -38 -52 -3
-29 -29 -127 -59 -218 l-54 -165 -3 218 -2 217 -35 0 -35 0 0 -345z"/>
<path d="M11280 2505 l0 -145 -70 0 -70 0 0 -40 0 -40 70 0 70 0 0 -160 0
-160 35 0 35 0 0 160 0 160 65 0 65 0 0 40 0 40 -65 0 -65 0 0 145 0 145 -35
0 -35 0 0 -145z"/>
<path d="M11840 2305 l0 -345 35 0 35 0 0 345 0 345 -35 0 -35 0 0 -345z"/>
<path d="M12410 2505 l0 -145 -70 0 -70 0 0 -40 0 -40 70 0 70 0 0 -160 0
-160 35 0 35 0 0 160 0 160 65 0 65 0 0 40 0 40 -65 0 -65 0 0 145 0 145 -35
0 -35 0 0 -145z"/>
<path d="M12895 2564 c-98 -47 -180 -86 -182 -87 -1 -2 41 -41 94 -87 l97 -84
-97 -91 -97 -91 191 -89 192 -89 18 23 c11 13 19 29 19 36 0 7 -63 41 -141 76
l-141 63 34 31 c18 16 59 53 90 81 l56 50 -90 74 c-61 50 -85 76 -76 81 7 4
70 33 141 64 70 32 127 63 127 69 0 18 -30 56 -43 55 -7 0 -93 -39 -192 -85z"/>
<path d="M13260 2305 l0 -345 48 0 48 0 69 122 c39 66 74 121 80 121 5 0 40
-55 78 -122 l69 -121 50 0 49 0 -30 53 c-16 28 -59 104 -95 167 -36 63 -66
120 -66 126 0 6 28 60 63 120 35 60 78 135 96 167 l32 57 -245 0 -246 0 0
-345z m350 261 c0 -6 -262 -450 -271 -460 -5 -6 -9 92 -9 227 l0 237 140 0
c77 0 140 -2 140 -4z"/>
<path d="M13880 2305 l0 -345 40 0 40 0 0 345 0 345 -40 0 -40 0 0 -345z"/>
<path d="M14530 2305 l0 -345 35 0 c34 0 35 1 35 38 -1 40 100 382 113 382 4
0 7 -94 7 -210 l0 -210 35 0 35 0 0 345 0 345 -34 0 c-33 0 -34 0 -38 -52 -3
-29 -29 -127 -59 -218 l-54 -165 -3 218 -2 217 -35 0 -35 0 0 -345z"/>
<path d="M15320 2610 l0 -40 75 0 75 0 0 -265 0 -265 -75 0 -75 0 0 -40 0 -40
185 0 185 0 0 40 0 40 -75 0 -75 0 0 265 0 265 75 0 75 0 0 40 0 40 -185 0
-185 0 0 -40z"/>
<path d="M15975 2564 c-98 -47 -180 -86 -182 -87 -1 -2 41 -41 94 -87 l97 -84
-97 -91 -97 -91 191 -89 192 -89 18 23 c11 13 19 29 19 36 0 7 -63 41 -141 76
l-141 63 34 31 c18 16 59 53 90 81 l56 50 -90 74 c-61 50 -85 76 -76 81 7 4
70 33 141 64 70 32 127 63 127 69 0 18 -30 56 -43 55 -7 0 -93 -39 -192 -85z"/>
<path d="M16450 2505 l0 -145 -70 0 -70 0 0 -40 0 -40 70 0 70 0 0 -160 0
-160 35 0 35 0 0 160 0 160 70 0 70 0 0 40 0 40 -70 0 -70 0 0 145 0 145 -35
0 -35 0 0 -145z"/>
<path d="M8164 2219 c-18 -5 -46 -25 -63 -44 -27 -31 -31 -44 -31 -90 0 -46 4
-59 31 -90 88 -100 249 -42 249 90 0 95 -94 162 -186 134z m96 -87 c14 -11 23
-29 23 -47 0 -62 -92 -89 -132 -39 -12 15 -21 32 -21 39 0 7 9 24 21 39 25 31
75 35 109 8z"/>
<path d="M8834 2219 c-18 -5 -46 -25 -63 -44 -27 -31 -31 -44 -31 -90 0 -46 4
-59 31 -90 88 -100 249 -42 249 90 0 95 -94 162 -186 134z m96 -87 c14 -11 23
-29 23 -47 0 -62 -92 -89 -132 -39 -12 15 -21 32 -21 39 0 7 9 24 21 39 25 31
75 35 109 8z"/>
<path d="M10836 2220 c-56 -17 -96 -73 -96 -135 0 -132 161 -190 249 -90 27
31 31 44 31 90 0 46 -4 59 -31 89 -17 20 -47 40 -67 46 -42 11 -47 11 -86 0z
m103 -96 c12 -15 21 -32 21 -39 0 -7 -9 -24 -21 -39 -40 -50 -131 -23 -131 39
0 62 91 89 131 39z"/>
<path d="M14204 2176 c-104 -46 -97 -190 11 -226 26 -9 44 -9 70 0 109 36 115
182 9 226 -41 17 -50 17 -90 0z m88 -73 c22 -20 23 -51 1 -75 -32 -36 -103
-12 -103 35 0 49 64 75 102 40z"/>
<path d="M15033 2183 c-12 -2 -36 -20 -53 -39 -84 -96 16 -240 133 -191 141
59 71 262 -80 230z m84 -89 c15 -24 15 -29 2 -53 -29 -51 -109 -33 -109 24 0
56 76 76 107 29z"/>
<path d="M330 1635 c0 -173 0 -176 -25 -200 -24 -25 -81 -34 -120 -19 -26 10
-44 61 -35 100 8 37 5 44 -21 44 -13 0 -19 -11 -25 -46 -14 -99 28 -149 126
-149 67 0 106 21 130 73 l15 32 135 0 c74 1 355 1 624 0 l488 -1 -4 72 c-3 65
-6 74 -36 100 -50 45 -108 38 -176 -21 l-36 -32 0 111 0 111 -25 0 -25 0 0
-150 0 -150 -141 0 c-131 0 -141 1 -134 18 5 9 10 31 13 49 6 46 -41 93 -93
93 -52 0 -99 -47 -93 -93 3 -18 8 -40 13 -49 6 -16 -1 -18 -81 -18 -115 0
-137 6 -130 34 4 11 9 33 13 49 5 25 4 27 -18 19 -17 -7 -28 -23 -37 -56 l-13
-46 -120 0 -119 0 0 150 0 150 -25 0 -25 0 0 -175z m673 -36 c14 -23 0 -67
-24 -74 -42 -14 -78 52 -47 83 17 17 58 11 71 -9z m551 -1 c8 -13 16 -36 18
-53 l3 -30 -97 -3 c-54 -1 -98 0 -98 4 0 15 46 68 74 85 42 26 82 25 100 -3z"/>
<path d="M2560 1640 l0 -170 25 0 25 0 0 170 0 170 -25 0 -25 0 0 -170z"/>
<path d="M2807 1792 c-16 -18 -16 -20 3 -37 19 -18 22 -18 37 -2 16 16 16 18
-3 37 -20 20 -21 20 -37 2z"/>
<path d="M2887 1792 c-16 -18 -16 -20 3 -37 19 -18 22 -18 37 -2 16 16 16 18
-3 37 -20 20 -21 20 -37 2z"/>
<path d="M3952 1654 c3 -142 5 -157 23 -170 17 -13 56 -15 230 -12 l210 3 83
39 c52 25 82 45 82 55 -1 20 -164 102 -202 101 -16 0 -42 -12 -60 -29 -28 -25
-31 -31 -19 -45 13 -15 15 -15 33 4 10 11 29 20 41 20 23 0 127 -41 127 -51 0
-13 -79 -41 -144 -49 -97 -13 -313 -12 -337 0 -17 10 -19 23 -19 150 l0 140
-26 0 -25 0 3 -156z"/>
<path d="M946 1772 c-15 -18 -15 -20 2 -35 18 -16 20 -16 35 0 11 13 13 23 6
36 -13 22 -22 22 -43 -1z"/>
<path d="M1901 1689 c-11 -18 -10 -24 3 -37 15 -15 17 -15 33 1 16 16 16 18
-2 37 -20 20 -20 20 -34 -1z"/>
<path d="M2900 1692 c0 -12 -17 -26 -50 -42 -57 -27 -76 -44 -85 -81 -11 -44
20 -70 100 -81 59 -9 338 -16 440 -11 17 1 104 -1 194 -3 129 -4 168 -2 185 9
18 12 25 12 51 -5 30 -18 80 -23 123 -12 19 6 22 13 22 61 0 86 -27 123 -89
123 -37 0 -64 -22 -95 -75 -15 -24 -35 -49 -46 -55 -20 -11 -238 -14 -264 -4
-14 5 -13 9 4 31 23 30 26 85 5 103 -22 18 -85 23 -133 11 -38 -11 -42 -15
-42 -43 0 -21 9 -42 27 -60 14 -15 23 -31 19 -35 -13 -13 -272 -16 -295 -3
-19 10 -21 20 -21 100 0 89 0 90 -25 90 -18 0 -25 -5 -25 -18z m0 -111 c0 -30
-5 -41 -19 -46 -25 -7 -74 12 -69 28 4 9 73 56 86 57 1 0 2 -18 2 -39z m459
25 c8 -10 6 -20 -10 -40 l-22 -27 -33 32 c-19 18 -34 37 -34 41 0 14 87 9 99
-6z m470 -32 c15 -33 14 -63 -2 -70 -18 -7 -90 18 -95 33 -5 18 53 74 71 67 8
-3 19 -16 26 -30z"/>
<path d="M2438 1645 c-16 -21 -16 -27 -3 -59 8 -19 15 -45 15 -56 0 -19 -6
-20 -167 -20 -93 0 -178 3 -191 6 -15 4 -32 25 -48 57 -24 46 -27 48 -42 33
-15 -15 -15 -20 1 -65 23 -64 22 -77 -8 -106 -35 -36 -106 -35 -141 0 -23 23
-25 31 -19 75 6 45 5 50 -13 50 -23 0 -32 -25 -32 -88 0 -77 74 -125 167 -107
40 7 103 62 103 89 0 14 24 16 209 16 135 0 212 4 216 10 17 27 -1 157 -24
182 -3 3 -14 -4 -23 -17z"/>
<path d="M587 1412 c-16 -18 -16 -20 3 -37 19 -18 22 -18 37 -2 16 16 16 18
-3 37 -20 20 -21 20 -37 2z"/>
<path d="M667 1412 c-16 -18 -16 -20 1 -35 24 -22 29 -21 41 2 8 14 6 22 -8
35 -16 15 -19 15 -34 -2z"/>
<path d="M2422 1409 c-12 -18 -11 -24 2 -37 14 -14 17 -14 36 3 19 17 19 19 4
37 -22 23 -26 23 -42 -3z"/>
<path d="M4397 1412 c-16 -18 -16 -20 1 -35 18 -16 20 -16 35 1 16 18 16 20
-1 35 -18 16 -20 16 -35 -1z"/>
<path d="M207 1143 c-4 -3 -7 -37 -7 -75 l0 -68 -50 0 c-43 0 -50 -3 -50 -20
0 -17 7 -20 50 -20 l50 0 0 -85 c0 -84 0 -85 25 -85 24 0 24 2 27 83 l3 82 48
3 c39 3 47 6 47 23 0 16 -7 19 -50 19 l-50 0 0 75 c0 66 -2 75 -18 75 -10 0
-22 -3 -25 -7z"/>
<path d="M699 1127 c-19 -12 -44 -42 -57 -67 -45 -86 -14 -218 60 -256 40 -21
130 -20 165 1 112 67 107 270 -7 327 -50 25 -119 23 -161 -5z m158 -49 c72
-67 45 -222 -43 -244 -41 -10 -94 7 -118 39 -25 34 -29 138 -7 180 31 57 119
71 168 25z"/>
<path d="M748 985 c-8 -19 -8 -28 2 -40 18 -21 57 -19 70 4 13 25 13 27 -6 45
-23 24 -53 20 -66 -9z"/>
<path d="M1041 983 c-35 -92 -66 -174 -69 -180 -2 -8 5 -13 19 -13 21 0 29 14
73 128 46 121 66 161 66 134 0 -7 21 -68 46 -137 41 -112 48 -125 70 -125 13
0 24 4 24 8 0 5 -28 85 -63 178 -85 227 -83 227 -166 7z"/>
<path d="M1340 970 l0 -180 125 0 125 0 0 181 0 180 -22 -3 c-23 -3 -23 -6
-26 -161 l-3 -158 -77 3 -77 3 -3 158 c-2 149 -4 157 -22 157 -19 0 -20 -7
-20 -180z"/>
<path d="M1753 1117 c-115 -39 -119 -51 -28 -104 35 -21 65 -40 65 -43 0 -3
-28 -23 -63 -45 -89 -58 -87 -67 27 -105 53 -17 100 -29 106 -25 25 15 5 33
-61 54 l-70 23 65 41 c36 23 66 48 66 55 0 7 -30 32 -66 55 l-65 41 67 23 c78
26 76 25 68 47 -8 20 0 21 -111 -17z"/>
<path d="M2010 1075 l0 -75 -50 0 c-43 0 -50 -3 -50 -20 0 -17 7 -20 50 -20
l50 0 0 -85 c0 -84 0 -85 25 -85 25 0 25 1 25 85 l0 85 50 0 c43 0 50 3 50 20
0 17 -7 20 -50 20 l-50 0 0 75 c0 73 -1 75 -25 75 -24 0 -25 -2 -25 -75z"/>
<path d="M2413 1117 c-115 -39 -119 -51 -28 -104 35 -21 65 -40 65 -43 0 -3
-29 -23 -65 -45 -37 -23 -65 -47 -65 -56 0 -12 26 -26 90 -48 103 -36 106 -36
114 -15 8 21 14 17 -68 44 l-69 22 67 42 c36 22 66 47 66 54 0 7 -30 31 -66
54 l-67 42 68 23 c79 26 77 25 69 47 -8 20 0 21 -111 -17z"/>
<path d="M2670 1132 c-100 -54 -112 -247 -19 -315 79 -58 198 -31 241 54 27
51 24 153 -5 203 -41 71 -141 98 -217 58z m125 -36 c33 -14 65 -59 65 -91 0
-13 -17 -15 -110 -15 -121 0 -125 2 -94 61 14 28 61 58 92 59 7 0 28 -6 47
-14z m61 -178 c-9 -49 -57 -88 -107 -88 -33 0 -47 6 -75 34 -21 21 -34 44 -34
60 l0 26 111 0 112 0 -7 -32z"/>
<path d="M2990 971 l0 -181 25 0 25 0 -2 178 c-3 175 -3 177 -25 180 l-23 3 0
-180z"/>
<path d="M3257 1143 c-4 -3 -7 -84 -7 -180 l0 -173 120 0 c113 0 120 1 120 20
0 18 -8 20 -92 22 l-93 3 0 55 c0 53 1 55 28 58 25 3 27 1 27 -32 0 -29 4 -36
19 -36 15 0 21 8 23 33 2 27 8 33 31 35 19 2 27 9 27 23 0 14 -7 19 -30 19
-27 0 -30 3 -30 30 0 23 -4 30 -20 30 -16 0 -20 -7 -20 -30 0 -27 -3 -30 -30
-30 -30 0 -30 1 -30 55 l0 55 90 0 c89 0 90 0 90 25 l0 25 -108 0 c-60 0 -112
-3 -115 -7z"/>
<path d="M3572 1134 c-29 -20 -31 -93 -4 -117 26 -23 94 -22 115 1 24 26 22
87 -3 112 -24 24 -77 26 -108 4z m78 -39 c20 -25 8 -50 -25 -50 -21 0 -31 5
-33 18 -4 21 14 47 33 47 7 0 18 -7 25 -15z"/>
<path d="M3760 1125 c0 -22 4 -25 35 -25 l35 0 0 -135 0 -135 -35 0 c-28 0
-35 -4 -35 -20 0 -18 7 -20 60 -20 l60 0 0 80 0 80 45 0 45 0 0 -80 0 -80 60
0 c53 0 60 2 60 20 0 16 -7 20 -35 20 l-35 0 0 135 0 135 35 0 c31 0 35 3 35
25 0 25 -2 26 -57 23 l-58 -3 -3 -77 -3 -78 -44 0 -44 0 -3 78 -3 77 -57 3
c-56 3 -58 2 -58 -23z"/>
<path d="M4400 971 l0 -181 25 0 c22 0 25 4 25 38 0 26 13 57 45 107 l45 70 0
-107 c0 -101 1 -108 20 -108 19 0 20 7 20 180 0 173 -1 180 -20 180 -16 0 -20
-7 -20 -31 0 -20 -17 -59 -46 -105 -25 -41 -47 -74 -48 -74 0 0 -1 46 -1 102
0 99 -1 103 -22 106 l-23 3 0 -180z"/>
<path d="M6463 1063 c-58 -4 -65 -15 -30 -43 22 -18 22 -23 25 -269 l3 -251
-26 -25 c-14 -14 -25 -30 -25 -35 0 -6 45 -10 105 -10 63 0 105 4 105 10 0 6
-9 19 -20 30 -18 18 -20 33 -20 155 0 131 1 137 25 160 31 32 78 33 99 3 13
-18 16 -52 16 -165 0 -132 -2 -144 -20 -155 -11 -7 -20 -18 -20 -25 0 -10 27
-13 105 -13 111 0 124 6 83 40 -22 17 -23 27 -28 184 -5 164 -5 166 -32 193
-24 23 -36 27 -83 27 -45 0 -62 -5 -100 -32 l-45 -32 0 130 0 130 -32 -2 c-18
-1 -57 -3 -85 -5z"/>
<path d="M8998 1063 c-61 -4 -76 -20 -35 -38 22 -10 22 -11 25 -277 2 -259 2
-268 -18 -280 -11 -7 -20 -18 -20 -25 0 -10 27 -13 105 -13 78 0 105 3 105 13
0 7 -9 18 -20 25 -18 11 -20 23 -20 156 l0 145 27 21 c36 28 83 24 100 -10 8
-16 13 -71 13 -157 0 -120 -2 -135 -20 -153 -11 -11 -20 -24 -20 -30 0 -6 42
-10 105 -10 84 0 105 3 105 14 0 8 -9 17 -19 21 -27 8 -31 32 -31 185 0 162
-12 197 -74 218 -50 16 -96 7 -146 -29 l-40 -29 0 130 0 130 -32 -2 c-18 -1
-59 -3 -90 -5z"/>
<path d="M10578 1063 c-61 -4 -76 -20 -35 -38 22 -10 22 -11 25 -277 2 -259 2
-268 -18 -280 -11 -7 -20 -18 -20 -25 0 -10 27 -13 105 -13 78 0 105 3 105 13
0 7 -9 18 -20 25 -19 12 -20 23 -20 307 l0 295 -32 -2 c-18 -1 -59 -3 -90 -5z"/>
<path d="M11705 1055 c-76 -20 -106 -62 -130 -177 -3 -15 -14 -29 -25 -33 -29
-9 -25 -35 5 -35 l25 0 0 -160 c0 -148 -2 -162 -20 -177 -41 -36 -26 -43 85
-43 84 0 105 3 105 14 0 8 -9 17 -19 21 -27 8 -31 32 -31 198 l0 147 45 0 c43
0 45 1 45 30 0 29 -2 30 -45 30 l-45 0 0 48 c0 26 6 58 13 72 16 33 58 34 72
3 7 -16 18 -23 37 -23 26 0 28 3 28 44 0 37 -4 45 -22 50 -34 9 -67 6 -123 -9z"/>
<path d="M13563 1063 c-38 -3 -53 -8 -53 -19 0 -7 7 -14 15 -14 30 0 35 -39
35 -289 0 -238 -1 -252 -20 -271 -11 -11 -20 -24 -20 -30 0 -6 42 -10 105 -10
111 0 124 6 83 40 -21 17 -23 27 -26 147 -3 128 -3 130 23 161 21 25 35 32 61
32 54 0 66 -40 62 -202 -2 -110 -6 -132 -20 -142 -38 -28 -20 -36 82 -36 102
0 120 8 83 36 -16 11 -19 35 -23 176 -4 136 -8 167 -24 190 -37 56 -140 57
-204 3 -16 -13 -32 -22 -36 -18 -3 3 -6 62 -6 130 l0 123 -32 -2 c-18 -1 -57
-3 -85 -5z"/>
<path d="M15173 1063 c-38 -3 -53 -8 -53 -19 0 -7 7 -14 15 -14 30 0 35 -39
35 -289 0 -238 -1 -252 -20 -271 -11 -11 -20 -24 -20 -30 0 -6 42 -10 105 -10
111 0 124 6 83 40 -23 18 -23 21 -26 309 l-3 291 -32 -2 c-18 -1 -56 -3 -84
-5z"/>
<path d="M5710 995 l0 -55 55 0 55 0 0 55 0 55 -55 0 -55 0 0 -55z"/>
<path d="M8222 1040 c-68 -14 -105 -40 -131 -93 -47 -94 -9 -172 119 -247 88
-51 120 -89 120 -141 0 -57 -34 -89 -93 -89 -54 0 -91 26 -108 75 -11 29 -18
35 -41 35 -28 0 -28 0 -28 -70 0 -38 3 -70 8 -70 4 0 46 -5 94 -11 111 -13
185 0 232 42 46 40 59 77 54 149 -4 52 -9 65 -39 96 -19 20 -64 53 -101 75
-82 48 -108 79 -108 130 0 52 30 79 87 79 49 0 87 -29 99 -74 5 -20 12 -26 35
-26 29 0 29 0 29 64 0 62 0 64 -30 69 -60 13 -156 16 -198 7z"/>
<path d="M5010 1027 c0 -7 9 -18 20 -25 19 -12 20 -23 20 -267 0 -244 -1 -255
-20 -267 -11 -7 -20 -18 -20 -25 0 -10 28 -13 110 -13 116 0 129 6 88 40 -22
17 -23 26 -23 137 l0 118 103 3 102 3 0 -126 c0 -114 -2 -126 -20 -137 -11 -7
-20 -18 -20 -25 0 -10 28 -13 110 -13 63 0 110 4 110 10 0 5 -11 20 -25 34
l-25 25 0 236 0 236 25 25 c14 14 25 29 25 34 0 6 -47 10 -110 10 -82 0 -110
-3 -110 -13 0 -7 9 -18 20 -25 18 -11 20 -23 20 -117 l0 -105 -106 0 -106 0 4
101 c3 90 5 103 26 119 41 34 28 40 -88 40 -82 0 -110 -3 -110 -13z"/>
<path d="M12030 960 c0 -77 1 -80 24 -80 18 0 27 9 41 45 19 51 38 65 89 65
l36 0 0 -249 c0 -214 -2 -252 -16 -265 -8 -9 -22 -16 -30 -16 -8 0 -14 -7 -14
-15 0 -12 20 -15 120 -15 100 0 120 3 120 15 0 8 -4 15 -9 15 -5 0 -17 7 -25
16 -14 13 -16 51 -16 265 l0 249 38 0 c49 0 68 -15 85 -65 11 -32 20 -41 40
-43 l27 -3 0 80 0 81 -255 0 -255 0 0 -80z"/>
<path d="M450 973 c-39 -15 -60 -47 -60 -89 0 -73 58 -114 130 -90 90 29 75
169 -20 181 -19 2 -42 2 -50 -2z m78 -87 c4 -34 -13 -56 -44 -56 -33 0 -58 39
-45 73 18 48 83 36 89 -17z"/>
<path d="M4200 973 c-8 -3 -25 -15 -37 -26 -33 -30 -32 -105 1 -136 26 -25 89
-31 123 -13 46 25 54 120 14 156 -20 18 -77 29 -101 19z m75 -93 c0 -39 -21
-56 -57 -47 -45 12 -47 80 -4 97 32 12 61 -11 61 -50z"/>
<path d="M3570 920 c-27 -27 -27 -90 -1 -114 26 -23 86 -23 112 0 12 11 19 30
19 56 0 49 -28 78 -75 78 -22 0 -43 -8 -55 -20z m78 -32 c30 -30 -4 -77 -41
-57 -29 17 -15 69 18 69 6 0 16 -5 23 -12z"/>
<path d="M6067 870 c-80 -20 -117 -66 -117 -145 0 -49 10 -77 42 -111 19 -21
18 -21 -12 -54 -34 -36 -41 -91 -15 -120 15 -16 13 -20 -15 -48 -35 -36 -38
-69 -10 -105 29 -36 81 -50 190 -51 143 -1 212 38 227 128 3 20 0 49 -7 66
-19 47 -61 63 -170 67 -128 5 -140 8 -140 37 0 34 22 48 63 41 19 -4 60 -2 90
5 99 20 148 106 114 198 l-15 44 39 -4 c37 -3 39 -2 39 24 l0 28 -89 0 c-48 0
-108 2 -132 5 -24 2 -61 0 -82 -5z m104 -49 c19 -15 24 -30 27 -88 4 -63 2
-72 -21 -99 -22 -25 -28 -27 -53 -19 -38 14 -54 48 -54 118 0 48 4 62 25 82
29 30 45 31 76 6z m75 -450 c28 -56 -33 -105 -123 -98 -88 6 -124 49 -92 108
9 18 19 19 107 17 90 -3 97 -4 108 -27z"/>
<path d="M7116 869 c-96 -23 -149 -104 -149 -224 1 -127 46 -194 147 -215 83
-17 173 7 220 59 18 19 18 23 4 37 -14 14 -19 13 -53 -10 -91 -62 -195 -9
-195 99 l0 35 141 0 142 0 -7 53 c-9 65 -42 126 -81 148 -38 22 -118 31 -169
18z m79 -35 c23 -9 45 -57 45 -99 l0 -35 -75 0 c-85 0 -89 6 -60 78 23 54 50
71 90 56z"/>
<path d="M7697 865 c-22 -7 -50 -23 -63 -36 -25 -23 -28 -21 -24 19 1 21 -2
22 -84 22 -48 0 -86 -4 -86 -10 0 -5 11 -20 25 -34 24 -25 25 -28 25 -176 0
-148 -1 -151 -25 -176 -14 -14 -25 -29 -25 -34 0 -6 47 -10 110 -10 91 0 110
3 110 15 0 8 -7 15 -15 15 -27 0 -35 38 -35 168 0 116 2 132 21 156 28 36 65
35 87 -4 14 -25 23 -30 55 -30 l37 0 0 59 c0 52 -2 59 -22 65 -33 8 -48 7 -91
-9z"/>
<path d="M8689 867 c-105 -30 -153 -101 -152 -226 1 -83 13 -124 46 -159 36
-39 78 -55 142 -55 87 0 174 47 159 87 -8 20 -13 20 -49 -4 -42 -28 -105 -27
-133 3 -30 32 -46 107 -39 182 7 75 28 121 62 137 34 15 54 4 72 -42 15 -37
19 -40 55 -40 l38 0 0 54 c0 48 -3 54 -22 59 -58 14 -137 15 -179 4z"/>
<path d="M9647 866 c-92 -25 -140 -101 -140 -221 0 -126 47 -193 151 -216 108
-23 215 22 253 105 27 60 26 185 -2 243 -38 79 -155 119 -262 89z m110 -41
c32 -23 47 -79 47 -185 0 -106 -17 -152 -59 -172 -59 -27 -102 32 -112 151
-13 157 48 259 124 206z"/>
<path d="M10167 866 c-64 -17 -113 -66 -132 -130 -44 -148 14 -280 134 -305
30 -6 75 -9 100 -5 124 18 181 92 181 233 -1 117 -52 189 -150 210 -62 13 -72
13 -133 -3z m112 -45 c11 -11 24 -37 30 -58 16 -56 14 -207 -3 -248 -29 -68
-97 -70 -132 -3 -22 42 -31 187 -15 246 21 76 77 106 120 63z"/>
<path d="M11179 871 c-93 -18 -149 -90 -157 -200 -9 -135 43 -218 151 -241
108 -22 210 19 253 102 24 46 29 146 10 210 -30 105 -128 154 -257 129z m93
-51 c32 -25 48 -87 48 -187 -1 -137 -52 -205 -118 -156 -37 27 -51 74 -51 173
-1 101 12 154 42 175 29 20 49 19 79 -5z"/>
<path d="M12775 871 c-106 -27 -155 -99 -155 -225 0 -84 15 -130 55 -170 67
-68 209 -70 288 -5 40 33 41 36 28 58 -7 11 -16 8 -47 -13 -46 -31 -116 -35
-153 -10 -28 20 -51 72 -51 114 l0 30 140 0 140 0 0 28 c0 77 -40 151 -96 180
-29 15 -113 22 -149 13z m82 -46 c17 -12 43 -85 43 -120 0 -3 -36 -5 -80 -5
-57 0 -80 4 -80 13 0 31 23 89 42 107 26 24 46 25 75 5z"/>
<path d="M13265 871 c-133 -34 -193 -159 -154 -318 31 -123 186 -169 304 -91
49 32 52 39 31 57 -11 9 -21 7 -48 -9 -36 -22 -88 -26 -120 -9 -32 17 -48 71
-48 161 1 125 39 192 98 173 19 -5 42 -44 42 -70 0 -11 12 -15 45 -15 l45 0 0
54 c0 48 -3 54 -22 59 -46 11 -144 16 -173 8z"/>
<path d="M14315 861 c-22 -11 -50 -28 -62 -37 -23 -16 -23 -16 -23 15 l0 31
-85 0 c-69 0 -85 -3 -85 -15 0 -8 4 -15 9 -15 5 0 17 -7 25 -16 13 -13 16 -43
16 -175 0 -146 -2 -161 -20 -179 -11 -11 -20 -24 -20 -30 0 -6 40 -10 100 -10
102 0 120 8 83 36 -15 10 -19 32 -21 139 -2 80 1 137 8 155 14 34 47 53 86 48
43 -5 56 -54 52 -201 -3 -109 -5 -120 -25 -137 -42 -34 -29 -40 82 -40 63 0
105 4 105 10 0 6 -9 19 -20 30 -18 18 -20 33 -20 153 0 72 -5 148 -10 168 -21
76 -100 107 -175 70z"/>
<path d="M14779 871 c-93 -18 -149 -90 -157 -200 -9 -135 43 -218 151 -241
108 -22 210 19 253 102 24 46 29 146 10 210 -30 105 -128 154 -257 129z m93
-51 c32 -25 48 -87 48 -187 -1 -137 -52 -205 -118 -156 -37 27 -51 74 -51 173
-1 101 12 154 42 175 29 20 49 19 79 -5z"/>
<path d="M15562 868 c-57 -12 -117 -72 -133 -130 -18 -69 -7 -190 22 -232 85
-124 309 -106 375 32 27 55 25 184 -4 239 -44 85 -139 118 -260 91z m112 -52
c32 -31 50 -122 43 -213 -6 -80 -16 -106 -52 -129 -67 -44 -117 30 -118 175 0
97 15 154 46 176 30 21 54 19 81 -9z"/>
<path d="M16057 870 c-80 -20 -117 -66 -117 -145 0 -49 10 -77 42 -111 19 -21
18 -21 -12 -54 -34 -36 -41 -91 -15 -120 15 -16 13 -20 -15 -48 -35 -36 -38
-69 -10 -105 29 -36 81 -50 190 -51 143 -1 212 38 227 128 3 20 0 49 -7 66
-19 47 -61 63 -170 67 -128 5 -140 8 -140 37 0 34 22 48 63 41 19 -4 60 -2 90
5 99 20 148 106 114 198 l-15 44 39 -4 c37 -3 39 -2 39 24 l0 28 -89 0 c-48 0
-108 2 -132 5 -24 2 -61 0 -82 -5z m104 -49 c19 -15 24 -30 27 -88 4 -63 2
-72 -21 -99 -22 -25 -28 -27 -53 -19 -38 14 -54 48 -54 118 0 48 4 62 25 82
29 30 45 31 76 6z m75 -450 c28 -56 -33 -105 -123 -98 -88 6 -124 49 -92 108
9 18 19 19 107 17 90 -3 97 -4 108 -27z"/>
<path d="M5650 857 c0 -7 10 -17 23 -22 21 -10 22 -14 25 -182 2 -164 1 -173
-18 -185 -11 -7 -20 -18 -20 -25 0 -10 27 -13 105 -13 111 0 124 6 83 40 -22
18 -23 25 -26 209 l-4 191 -84 0 c-61 0 -84 -3 -84 -13z"/>
<path d="M16380 855 c0 -8 4 -15 10 -15 15 0 33 -42 99 -230 34 -95 66 -177
72 -181 7 -4 5 -17 -6 -40 -38 -75 -91 -102 -117 -59 -7 11 -21 20 -30 20 -15
0 -18 -9 -18 -49 0 -44 2 -49 26 -55 43 -11 94 5 130 41 34 34 82 127 190 372
32 74 71 147 87 163 15 17 27 34 27 39 0 5 -38 9 -85 9 -88 0 -108 -11 -65
-38 12 -7 20 -23 20 -40 0 -28 -79 -232 -90 -232 -7 0 -81 228 -80 247 0 7 9
18 20 25 11 7 20 18 20 25 0 10 -27 13 -105 13 -87 0 -105 -3 -105 -15z"/>
<path d="M1954 565 c-8 -21 2 -45 19 -45 21 0 38 25 31 44 -8 20 -43 21 -50 1z"/>
<path d="M2030 564 c-11 -12 -10 -18 3 -31 21 -21 47 -9 47 22 0 29 -29 35
-50 9z"/>
<path d="M2974 565 c-8 -21 2 -45 19 -45 21 0 38 25 31 44 -8 20 -43 21 -50 1z"/>
<path d="M4044 565 c-8 -21 2 -45 19 -45 20 0 40 27 33 45 -7 19 -45 20 -52 0z"/>
<path d="M330 400 c0 -161 1 -170 19 -170 11 0 21 5 23 10 2 7 17 5 42 -5 64
-27 127 6 146 77 29 105 -62 198 -151 154 -18 -9 -34 -16 -36 -16 -1 0 -3 27
-3 60 0 53 -2 60 -20 60 -19 0 -20 -7 -20 -170z m156 22 c6 -4 16 -17 23 -29
44 -84 -60 -170 -118 -97 -42 54 -11 134 52 134 18 0 37 -4 43 -8z"/>
<path d="M1570 550 c-11 -11 -20 -33 -20 -50 0 -23 -4 -30 -20 -30 -15 0 -20
-7 -20 -25 0 -18 5 -25 20 -25 19 0 20 -7 20 -95 0 -95 0 -95 25 -95 25 0 25
0 25 95 0 95 0 95 25 95 20 0 25 5 25 25 0 20 -5 25 -26 25 -22 0 -25 4 -22
28 2 22 7 27 30 25 16 -1 29 5 33 14 13 36 -62 46 -95 13z"/>
<path d="M2120 400 l0 -170 25 0 25 0 0 170 0 170 -25 0 -25 0 0 -170z"/>
<path d="M100 530 c0 -16 7 -20 30 -20 l30 0 0 -114 0 -115 -27 -3 c-20 -2
-29 -9 -31 -26 -3 -21 -1 -22 77 -22 80 0 81 0 81 25 0 20 -5 25 -25 25 l-25
0 0 115 0 115 25 0 c18 0 25 5 25 20 0 18 -7 20 -80 20 -73 0 -80 -2 -80 -20z"/>
<path d="M1010 530 c0 -17 7 -20 45 -20 l45 0 0 -140 0 -140 25 0 25 0 0 140
0 140 45 0 c38 0 45 3 45 20 0 19 -7 20 -115 20 -108 0 -115 -1 -115 -20z"/>
<path d="M2360 439 c0 -125 14 -170 61 -194 36 -19 102 -19 139 0 49 25 60 60
60 190 l0 115 -25 0 -25 0 0 -111 c0 -61 -4 -119 -10 -129 -13 -25 -65 -41
-94 -30 -46 17 -56 46 -56 162 l0 108 -25 0 -25 0 0 -111z"/>
<path d="M4207 533 c-4 -3 -7 -19 -7 -35 0 -23 -4 -28 -25 -28 -18 0 -25 -5
-25 -20 0 -15 7 -20 25 -20 l25 0 0 -100 0 -100 25 0 25 0 0 100 0 100 30 0
c23 0 30 4 30 20 0 16 -7 20 -30 20 -28 0 -30 3 -30 35 0 27 -4 35 -18 35 -10
0 -22 -3 -25 -7z"/>
<path d="M698 464 c-16 -8 -28 -10 -28 -4 0 5 -11 10 -25 10 l-25 0 0 -120 0
-120 25 0 c25 0 25 1 25 90 0 97 8 110 62 110 40 0 48 -18 48 -112 0 -87 0
-88 25 -88 25 0 25 1 25 90 0 101 -15 144 -52 154 -34 9 -50 7 -80 -10z"/>
<path d="M1303 465 c-48 -20 -75 -70 -70 -124 9 -86 82 -135 162 -109 106 35
112 191 10 234 -42 17 -61 17 -102 -1z m107 -57 c26 -28 26 -78 -1 -112 -28
-36 -80 -36 -108 0 -43 55 -11 134 54 134 22 0 41 -8 55 -22z"/>
<path d="M1755 470 c-84 -34 -99 -158 -26 -224 27 -25 94 -25 121 -1 18 16 20
16 20 2 0 -11 8 -17 25 -17 l25 0 0 120 0 120 -25 0 c-14 0 -25 -5 -25 -10 0
-6 -13 -4 -30 5 -32 17 -55 18 -85 5z m98 -57 c25 -29 30 -68 13 -101 -26 -50
-82 -58 -115 -16 -44 56 -13 134 53 134 19 0 40 -8 49 -17z"/>
<path d="M2773 460 c-27 -16 -33 -17 -33 -5 0 8 -9 15 -20 15 -19 0 -20 -7
-20 -120 0 -113 1 -120 20 -120 18 0 20 7 20 78 0 94 15 122 64 122 49 0 56
-14 56 -112 l0 -88 26 0 26 0 -4 101 c-3 96 -4 102 -31 125 -34 29 -62 30
-104 4z"/>
<path d="M3412 463 c-41 -20 -62 -59 -62 -117 0 -82 78 -139 162 -116 43 12
60 30 48 50 -8 12 -13 13 -30 3 -47 -30 -130 -3 -130 42 0 12 17 15 90 15 89
0 90 0 90 24 0 42 -18 75 -52 96 -40 24 -72 25 -116 3z m100 -50 c30 -27 21
-33 -47 -33 -36 0 -65 3 -65 7 0 3 7 15 17 25 20 22 70 23 95 1z"/>
<path d="M3730 473 c-8 -3 -23 -12 -32 -21 -16 -14 -18 -13 -18 1 0 11 -8 17
-25 17 l-25 0 0 -120 0 -120 25 0 c24 0 25 2 25 75 0 68 3 79 26 101 15 16 32
24 44 21 19 -5 30 10 30 39 0 14 -22 17 -50 7z"/>
<path d="M3855 468 c-73 -40 -56 -103 38 -138 29 -11 42 -21 42 -34 0 -32 -28
-41 -65 -23 -25 13 -36 14 -47 6 -34 -29 60 -67 116 -48 35 12 51 35 51 73 0
27 -41 66 -70 66 -10 0 -28 8 -41 19 -20 16 -21 21 -10 35 17 20 40 20 70 0
21 -15 24 -15 38 -1 14 14 13 18 -18 36 -37 23 -73 26 -104 9z"/>
<path d="M2000 350 l0 -120 25 0 25 0 0 120 0 120 -25 0 -25 0 0 -120z"/>
<path d="M2980 350 l0 -120 25 0 25 0 0 120 0 120 -25 0 -25 0 0 -120z"/>
<path d="M3089 448 c5 -13 27 -66 49 -118 56 -132 65 -131 126 7 27 59 50 114
53 121 3 7 -4 12 -20 12 -22 0 -29 -10 -57 -80 -18 -44 -35 -80 -39 -80 -3 0
-20 35 -36 78 -27 67 -34 77 -58 80 -25 3 -26 1 -18 -20z"/>
<path d="M4050 350 l0 -120 25 0 25 0 0 120 0 120 -25 0 -25 0 0 -120z"/>
<path d="M4372 358 c27 -62 52 -120 55 -128 2 -9 -5 -37 -16 -63 l-21 -48 27
3 c24 3 32 16 90 158 84 208 80 192 47 188 -26 -3 -32 -11 -59 -85 -16 -45
-33 -84 -36 -88 -3 -3 -23 35 -44 85 -35 83 -40 90 -66 90 l-28 0 51 -112z"/>
</g>
</svg>
